<svg width="186" height="83" viewBox="0 0 186 83" fill="none" xmlns="http://www.w3.org/2000/svg">
<rect x="0.711914" y="0.400879" width="184.576" height="81.6331" rx="10" fill="#5F0E86"/>
<circle cx="29.1296" cy="21.0219" r="7.35174" fill="white"/>
<circle cx="48.0619" cy="21.0219" r="8.76552" fill="white"/>
<circle cx="93.0077" cy="21.0219" r="8.76552" fill="white"/>
<circle cx="69.8213" cy="21.022" r="11.606" fill="white"/>
<circle cx="112.64" cy="21.0219" r="7.35174" fill="white"/>
<circle cx="128.859" cy="21.0219" r="7.35174" fill="white"/>
<circle cx="146.205" cy="21.0219" r="7.35174" fill="white"/>
<path d="M61.0557 40.7256C61.0557 37.9642 63.2942 35.7256 66.0557 35.7256H73.5867C76.3482 35.7256 78.5867 37.9642 78.5867 40.7256V66.2635H61.0557V40.7256Z" fill="white"/>
<path d="M84.2422 40.7256C84.2422 37.9642 86.4808 35.7256 89.2422 35.7256H96.7733C99.5347 35.7256 101.773 37.9642 101.773 40.7256V66.2635H84.2422V40.7256Z" fill="white"/>
<path d="M107.429 40.7256C107.429 37.9642 109.667 35.7256 112.429 35.7256H119.96C122.721 35.7256 124.96 37.9642 124.96 40.7256V66.2635H107.429V40.7256Z" fill="white"/>
<path d="M130.615 40.7256C130.615 37.9642 132.854 35.7256 135.615 35.7256H143.146C145.908 35.7256 148.146 37.9642 148.146 40.7256V66.2635H130.615V40.7256Z" fill="white"/>
<path d="M153.802 40.7256C153.802 37.9642 156.04 35.7256 158.802 35.7256H166.333C169.094 35.7256 171.333 37.9642 171.333 40.7256V66.2635H153.802V40.7256Z" fill="white"/>
<path d="M39.2964 40.7256C39.2964 37.9642 41.535 35.7256 44.2964 35.7256H51.8275C54.5889 35.7256 56.8275 37.9642 56.8275 40.7256V66.2635H39.2964V40.7256Z" fill="white"/>
<path d="M17.5361 40.7256C17.5361 37.9642 19.7747 35.7256 22.5361 35.7256H30.0672C32.8286 35.7256 35.0672 37.9642 35.0672 40.7256V66.2635H17.5361V40.7256Z" fill="white"/>
</svg>

