<svg width="182" height="54" viewBox="0 0 182 54" fill="none" xmlns="http://www.w3.org/2000/svg">
<rect x="29.6426" y="11.8384" width="90.1531" height="30.3234" rx="8" fill="#FF2E00"/>
<path d="M30.7437 40.712C29.9517 40.136 29.1957 39.488 28.4397 38.804L27.1437 37.544C29.6637 34.16 30.5997 31.28 30.5997 27.032C30.5997 17.564 24.9477 11.516 16.1637 11.516C7.23569 11.516 1.51169 17.636 1.51169 27.14C1.51169 36.68 7.19969 42.8 16.1277 42.8C18.7917 42.8 20.8077 42.332 22.9317 41.144C25.4157 43.556 25.9197 44.06 26.7117 45.032L30.7437 40.712ZM15.1557 33.944C16.1637 34.736 16.8117 35.312 17.9277 36.32C17.3877 36.536 16.7397 36.644 16.0557 36.644C14.2917 36.644 12.6717 35.996 11.5197 34.808C9.82769 33.116 8.96369 30.416 8.96369 26.96C8.96369 21.236 11.6637 17.708 16.0557 17.708C20.4837 17.708 23.1837 21.272 23.1837 27.14C23.1837 29.588 22.8597 31.136 22.0317 32.684C19.8717 30.632 19.8717 30.632 19.2597 29.912L15.1557 33.944Z" fill="#FF2E00"/>
<path d="M148.632 42.116C147.732 40.208 147.3 39.308 146.904 38.3C145.284 34.412 144.78 33.188 144.24 32.036C143.088 29.48 142.26 28.652 140.424 28.076C142.188 27.5 142.944 27.104 143.844 26.276C145.248 24.944 145.968 22.928 145.968 20.372C145.968 15.188 142.584 12.164 136.752 12.164H127.392C124.944 12.164 123.612 12.128 122.028 12.056C122.244 13.784 122.316 15.116 122.316 17.348V36.716C122.316 39.38 122.244 40.46 122.028 42.116H129.768C129.552 40.46 129.48 39.128 129.48 36.68V30.776H133.152C134.304 30.776 135.204 31.064 135.96 31.748C136.86 32.54 137.292 33.368 138.444 36.5C139.56 39.488 139.992 40.964 140.208 42.116H148.632ZM129.48 24.62V18.212H135.132C137.364 18.212 138.516 19.256 138.516 21.272C138.516 23.324 137.22 24.62 135.096 24.62H129.48Z" fill="#FF2E00"/>
<path d="M48.1211 33.9067V33.2915C47.5469 34.0181 46.9434 34.6274 46.3105 35.1196C45.6777 35.6118 44.9863 35.9751 44.2363 36.2095C43.4863 36.4556 42.6309 36.5786 41.6699 36.5786C40.5098 36.5786 39.4668 36.3384 38.541 35.8579C37.627 35.3774 36.918 34.7153 36.4141 33.8716C35.8164 32.8521 35.5176 31.3872 35.5176 29.4771V19.9673C35.5176 19.0063 35.7344 18.2915 36.168 17.8228C36.6016 17.3423 37.1758 17.1021 37.8906 17.1021C38.6172 17.1021 39.2031 17.3423 39.6484 17.8228C40.0938 18.3032 40.3164 19.0181 40.3164 19.9673V27.6489C40.3164 28.7622 40.4102 29.6997 40.5977 30.4614C40.7852 31.2114 41.1191 31.8032 41.5996 32.2368C42.0918 32.6587 42.7539 32.8696 43.5859 32.8696C44.3945 32.8696 45.1562 32.6294 45.8711 32.1489C46.5859 31.6685 47.1074 31.0415 47.4355 30.2681C47.7051 29.5884 47.8398 28.1001 47.8398 25.8032V19.9673C47.8398 19.0181 48.0625 18.3032 48.5078 17.8228C48.9531 17.3423 49.5332 17.1021 50.248 17.1021C50.9629 17.1021 51.5371 17.3423 51.9707 17.8228C52.4043 18.2915 52.6211 19.0063 52.6211 19.9673V33.8716C52.6211 34.7856 52.4102 35.4712 51.9883 35.9282C51.5781 36.3853 51.0449 36.6138 50.3887 36.6138C49.7324 36.6138 49.1875 36.3794 48.7539 35.9106C48.332 35.4302 48.1211 34.7622 48.1211 33.9067ZM69.0145 28.0356H59.6277C59.6395 29.1255 59.8563 30.0864 60.2781 30.9185C60.7117 31.7505 61.2801 32.3774 61.9832 32.7993C62.698 33.2212 63.4832 33.4321 64.3387 33.4321C64.9129 33.4321 65.4344 33.3677 65.9031 33.2388C66.3836 33.0981 66.8465 32.8872 67.2918 32.606C67.7371 32.313 68.1473 32.0024 68.5223 31.6743C68.8973 31.3462 69.3836 30.9009 69.9813 30.3384C70.2273 30.1274 70.5789 30.022 71.0359 30.022C71.5281 30.022 71.9266 30.1567 72.2313 30.4263C72.5359 30.6958 72.6883 31.0767 72.6883 31.5688C72.6883 32.0024 72.5184 32.5122 72.1785 33.0981C71.8387 33.6724 71.323 34.229 70.6316 34.7681C69.952 35.2954 69.0906 35.7349 68.0477 36.0864C67.0164 36.438 65.827 36.6138 64.4793 36.6138C61.3973 36.6138 59.0008 35.7349 57.2898 33.9771C55.5789 32.2192 54.7234 29.8345 54.7234 26.8228C54.7234 25.4048 54.9344 24.0923 55.3563 22.8853C55.7781 21.6665 56.3934 20.6235 57.202 19.7563C58.0105 18.8892 59.0066 18.2271 60.1902 17.77C61.3738 17.3013 62.6863 17.0669 64.1277 17.0669C66.0027 17.0669 67.6082 17.4653 68.9441 18.2622C70.2918 19.0474 71.2996 20.0669 71.9676 21.3208C72.6355 22.5747 72.9695 23.8521 72.9695 25.1528C72.9695 26.3599 72.6238 27.145 71.9324 27.5083C71.241 27.8599 70.2684 28.0356 69.0145 28.0356ZM59.6277 25.311H68.3289C68.2117 23.6704 67.7664 22.4458 66.993 21.6372C66.2313 20.8169 65.2234 20.4067 63.9695 20.4067C62.7742 20.4067 61.7898 20.8228 61.0164 21.6548C60.2547 22.4751 59.7918 23.6938 59.6277 25.311ZM87.693 33.9067V33.2915C87.1188 34.0181 86.5152 34.6274 85.8824 35.1196C85.2496 35.6118 84.5582 35.9751 83.8082 36.2095C83.0582 36.4556 82.2027 36.5786 81.2418 36.5786C80.0816 36.5786 79.0387 36.3384 78.1129 35.8579C77.1988 35.3774 76.4898 34.7153 75.9859 33.8716C75.3883 32.8521 75.0895 31.3872 75.0895 29.4771V19.9673C75.0895 19.0063 75.3063 18.2915 75.7398 17.8228C76.1734 17.3423 76.7477 17.1021 77.4625 17.1021C78.1891 17.1021 78.775 17.3423 79.2203 17.8228C79.6656 18.3032 79.8883 19.0181 79.8883 19.9673V27.6489C79.8883 28.7622 79.982 29.6997 80.1695 30.4614C80.357 31.2114 80.691 31.8032 81.1715 32.2368C81.6637 32.6587 82.3258 32.8696 83.1578 32.8696C83.9664 32.8696 84.7281 32.6294 85.443 32.1489C86.1578 31.6685 86.6793 31.0415 87.0074 30.2681C87.277 29.5884 87.4117 28.1001 87.4117 25.8032V19.9673C87.4117 19.0181 87.6344 18.3032 88.0797 17.8228C88.525 17.3423 89.1051 17.1021 89.8199 17.1021C90.5348 17.1021 91.109 17.3423 91.5426 17.8228C91.9762 18.2915 92.193 19.0063 92.193 19.9673V33.8716C92.193 34.7856 91.982 35.4712 91.5602 35.9282C91.15 36.3853 90.6168 36.6138 89.9605 36.6138C89.3043 36.6138 88.7594 36.3794 88.3258 35.9106C87.9039 35.4302 87.693 34.7622 87.693 33.9067ZM108.586 28.0356H99.1996C99.2113 29.1255 99.4281 30.0864 99.85 30.9185C100.284 31.7505 100.852 32.3774 101.555 32.7993C102.27 33.2212 103.055 33.4321 103.911 33.4321C104.485 33.4321 105.006 33.3677 105.475 33.2388C105.955 33.0981 106.418 32.8872 106.864 32.606C107.309 32.313 107.719 32.0024 108.094 31.6743C108.469 31.3462 108.955 30.9009 109.553 30.3384C109.799 30.1274 110.151 30.022 110.608 30.022C111.1 30.022 111.498 30.1567 111.803 30.4263C112.108 30.6958 112.26 31.0767 112.26 31.5688C112.26 32.0024 112.09 32.5122 111.75 33.0981C111.411 33.6724 110.895 34.229 110.204 34.7681C109.524 35.2954 108.662 35.7349 107.62 36.0864C106.588 36.438 105.399 36.6138 104.051 36.6138C100.969 36.6138 98.5727 35.7349 96.8617 33.9771C95.1508 32.2192 94.2953 29.8345 94.2953 26.8228C94.2953 25.4048 94.5062 24.0923 94.9281 22.8853C95.35 21.6665 95.9652 20.6235 96.7738 19.7563C97.5824 18.8892 98.5785 18.2271 99.7621 17.77C100.946 17.3013 102.258 17.0669 103.7 17.0669C105.575 17.0669 107.18 17.4653 108.516 18.2622C109.864 19.0474 110.871 20.0669 111.539 21.3208C112.207 22.5747 112.541 23.8521 112.541 25.1528C112.541 26.3599 112.196 27.145 111.504 27.5083C110.813 27.8599 109.84 28.0356 108.586 28.0356ZM99.1996 25.311H107.901C107.784 23.6704 107.338 22.4458 106.565 21.6372C105.803 20.8169 104.795 20.4067 103.541 20.4067C102.346 20.4067 101.362 20.8228 100.588 21.6548C99.8266 22.4751 99.3637 23.6938 99.1996 25.311Z" fill="white"/>
</svg>

