<svg width="159" height="55" viewBox="0 0 159 55" fill="none" xmlns="http://www.w3.org/2000/svg">
<path d="M30.7559 41.4913C29.9639 40.9153 29.2079 40.2673 28.4519 39.5833L27.1559 38.3233C29.6759 34.9393 30.6119 32.0593 30.6119 27.8113C30.6119 18.3433 24.9599 12.2953 16.1759 12.2953C7.24789 12.2953 1.52389 18.4153 1.52389 27.9193C1.52389 37.4593 7.21189 43.5793 16.1399 43.5793C18.8039 43.5793 20.8199 43.1113 22.9439 41.9233C25.4279 44.3353 25.9319 44.8393 26.7239 45.8113L30.7559 41.4913ZM15.1679 34.7233C16.1759 35.5153 16.8239 36.0913 17.9399 37.0993C17.3999 37.3153 16.7519 37.4233 16.0679 37.4233C14.3039 37.4233 12.6839 36.7753 11.5319 35.5873C9.83989 33.8953 8.9759 31.1953 8.9759 27.7393C8.9759 22.0153 11.6759 18.4873 16.0679 18.4873C20.4959 18.4873 23.1959 22.0513 23.1959 27.9193C23.1959 30.3673 22.8719 31.9153 22.0439 33.4633C19.8839 31.4113 19.8839 31.4113 19.2719 30.6913L15.1679 34.7233Z" fill="white"/>
<path d="M158.302 42.8953C157.402 40.9873 156.97 40.0873 156.574 39.0793C154.954 35.1913 154.45 33.9673 153.91 32.8153C152.758 30.2593 151.93 29.4313 150.094 28.8553C151.858 28.2793 152.614 27.8833 153.514 27.0553C154.918 25.7233 155.638 23.7073 155.638 21.1513C155.638 15.9673 152.254 12.9433 146.422 12.9433H137.062C134.614 12.9433 133.282 12.9073 131.698 12.8353C131.914 14.5633 131.986 15.8953 131.986 18.1273V37.4953C131.986 40.1593 131.914 41.2393 131.698 42.8953H139.438C139.222 41.2393 139.15 39.9073 139.15 37.4593V31.5553H142.822C143.974 31.5553 144.874 31.8433 145.63 32.5273C146.53 33.3193 146.962 34.1473 148.114 37.2793C149.23 40.2673 149.662 41.7433 149.878 42.8953H158.302ZM139.15 25.3993V18.9913H144.802C147.034 18.9913 148.186 20.0353 148.186 22.0513C148.186 24.1033 146.89 25.3993 144.766 25.3993H139.15Z" fill="white"/>
<path fill-rule="evenodd" clip-rule="evenodd" d="M37.6548 12.6177C33.2365 12.6177 29.6548 16.1994 29.6548 20.6177V34.9411C29.6548 39.3594 33.2365 42.9411 37.6548 42.9411H111.808C116.226 42.9411 119.808 39.3594 119.808 34.9411V20.6177C119.808 16.1994 116.226 12.6177 111.808 12.6177H37.6548ZM59.6399 28.8149H69.0267C70.2806 28.8149 71.2532 28.6392 71.9446 28.2876C72.636 27.9243 72.9817 27.1392 72.9817 25.9321C72.9817 24.6313 72.6478 23.354 71.9798 22.1001C71.3118 20.8462 70.304 19.8267 68.9563 19.0415C67.6204 18.2446 66.0149 17.8462 64.1399 17.8462C62.6985 17.8462 61.386 18.0806 60.2024 18.5493C59.0188 19.0063 58.0228 19.6685 57.2142 20.5356C56.4056 21.4028 55.7903 22.4458 55.3685 23.6646C54.9466 24.8716 54.7356 26.1841 54.7356 27.6021C54.7356 30.6138 55.5911 32.9985 57.3021 34.7563C59.013 36.5142 61.4095 37.3931 64.4915 37.3931C65.8392 37.3931 67.0286 37.2173 68.0599 36.8657C69.1028 36.5142 69.9642 36.0747 70.6438 35.5474C71.3353 35.0083 71.8509 34.4517 72.1907 33.8774C72.5306 33.2915 72.7005 32.7817 72.7005 32.3481C72.7005 31.856 72.5481 31.4751 72.2435 31.2056C71.9388 30.936 71.5403 30.8013 71.0481 30.8013C70.5911 30.8013 70.2396 30.9067 69.9935 31.1177C69.3958 31.6802 68.9095 32.1255 68.5345 32.4536C68.1595 32.7817 67.7493 33.0923 67.304 33.3853C66.8587 33.6665 66.3958 33.8774 65.9153 34.0181C65.4466 34.147 64.9251 34.2114 64.3509 34.2114C63.4954 34.2114 62.7103 34.0005 61.9954 33.5786C61.2923 33.1567 60.7239 32.5298 60.2903 31.6978C59.8685 30.8657 59.6517 29.9048 59.6399 28.8149ZM68.3411 26.0903H59.6399C59.804 24.4731 60.2669 23.2544 61.0286 22.4341C61.8021 21.6021 62.7864 21.186 63.9817 21.186C65.2356 21.186 66.2435 21.5962 67.0052 22.4165C67.7786 23.2251 68.2239 24.4497 68.3411 26.0903ZM48.1333 34.0708V34.686C48.1333 35.5415 48.3442 36.2095 48.7661 36.6899C49.1997 37.1587 49.7446 37.3931 50.4009 37.3931C51.0571 37.3931 51.5903 37.1646 52.0005 36.7075C52.4224 36.2505 52.6333 35.5649 52.6333 34.6509V20.7466C52.6333 19.7856 52.4165 19.0708 51.9829 18.6021C51.5493 18.1216 50.9751 17.8813 50.2603 17.8813C49.5454 17.8813 48.9653 18.1216 48.52 18.6021C48.0747 19.0825 47.8521 19.7974 47.8521 20.7466V26.5825C47.8521 28.8794 47.7173 30.3677 47.4478 31.0474C47.1196 31.8208 46.5981 32.4478 45.8833 32.9282C45.1685 33.4087 44.4067 33.6489 43.5981 33.6489C42.7661 33.6489 42.104 33.438 41.6118 33.0161C41.1313 32.5825 40.7974 31.9907 40.6099 31.2407C40.4224 30.479 40.3286 29.5415 40.3286 28.4282V20.7466C40.3286 19.7974 40.106 19.0825 39.6606 18.6021C39.2153 18.1216 38.6294 17.8813 37.9028 17.8813C37.188 17.8813 36.6138 18.1216 36.1802 18.6021C35.7466 19.0708 35.5298 19.7856 35.5298 20.7466V30.2563C35.5298 32.1665 35.8286 33.6313 36.4263 34.6509C36.9302 35.4946 37.6392 36.1567 38.5532 36.6372C39.479 37.1177 40.522 37.3579 41.6821 37.3579C42.6431 37.3579 43.4985 37.2349 44.2485 36.9888C44.9985 36.7544 45.6899 36.3911 46.3228 35.8989C46.9556 35.4067 47.5591 34.7974 48.1333 34.0708ZM87.7052 34.686V34.0708C87.131 34.7974 86.5274 35.4067 85.8946 35.8989C85.2618 36.3911 84.5704 36.7544 83.8204 36.9888C83.0704 37.2349 82.2149 37.3579 81.254 37.3579C80.0938 37.3579 79.0509 37.1177 78.1251 36.6372C77.211 36.1567 76.5021 35.4946 75.9981 34.6509C75.4005 33.6313 75.1017 32.1665 75.1017 30.2563V20.7466C75.1017 19.7856 75.3185 19.0708 75.7521 18.6021C76.1856 18.1216 76.7599 17.8813 77.4747 17.8813C78.2013 17.8813 78.7872 18.1216 79.2325 18.6021C79.6778 19.0825 79.9005 19.7974 79.9005 20.7466V28.4282C79.9005 29.5415 79.9942 30.479 80.1817 31.2407C80.3692 31.9907 80.7032 32.5825 81.1837 33.0161C81.6759 33.438 82.338 33.6489 83.17 33.6489C83.9786 33.6489 84.7403 33.4087 85.4552 32.9282C86.17 32.4478 86.6915 31.8208 87.0196 31.0474C87.2892 30.3677 87.4239 28.8794 87.4239 26.5825V20.7466C87.4239 19.7974 87.6466 19.0825 88.0919 18.6021C88.5372 18.1216 89.1173 17.8813 89.8321 17.8813C90.547 17.8813 91.1212 18.1216 91.5548 18.6021C91.9884 19.0708 92.2052 19.7856 92.2052 20.7466V34.6509C92.2052 35.5649 91.9942 36.2505 91.5724 36.7075C91.1622 37.1646 90.629 37.3931 89.9728 37.3931C89.3165 37.3931 88.7716 37.1587 88.338 36.6899C87.9161 36.2095 87.7052 35.5415 87.7052 34.686ZM99.2118 28.8149H108.599C109.852 28.8149 110.825 28.6392 111.517 28.2876C112.208 27.9243 112.554 27.1392 112.554 25.9321C112.554 24.6313 112.22 23.354 111.552 22.1001C110.884 20.8462 109.876 19.8267 108.528 19.0415C107.192 18.2446 105.587 17.8462 103.712 17.8462C102.27 17.8462 100.958 18.0806 99.7743 18.5493C98.5907 19.0063 97.5946 19.6685 96.786 20.5356C95.9774 21.4028 95.3622 22.4458 94.9403 23.6646C94.5185 24.8716 94.3075 26.1841 94.3075 27.6021C94.3075 30.6138 95.163 32.9985 96.8739 34.7563C98.5849 36.5142 100.981 37.3931 104.063 37.3931C105.411 37.3931 106.6 37.2173 107.632 36.8657C108.675 36.5142 109.536 36.0747 110.216 35.5474C110.907 35.0083 111.423 34.4517 111.763 33.8774C112.102 33.2915 112.272 32.7817 112.272 32.3481C112.272 31.856 112.12 31.4751 111.815 31.2056C111.511 30.936 111.112 30.8013 110.62 30.8013C110.163 30.8013 109.811 30.9067 109.565 31.1177C108.968 31.6802 108.481 32.1255 108.106 32.4536C107.731 32.7817 107.321 33.0923 106.876 33.3853C106.431 33.6665 105.968 33.8774 105.487 34.0181C105.018 34.147 104.497 34.2114 103.923 34.2114C103.067 34.2114 102.282 34.0005 101.567 33.5786C100.864 33.1567 100.296 32.5298 99.8622 31.6978C99.4403 30.8657 99.2235 29.9048 99.2118 28.8149ZM107.913 26.0903H99.2118C99.3759 24.4731 99.8388 23.2544 100.6 22.4341C101.374 21.6021 102.358 21.186 103.554 21.186C104.808 21.186 105.815 21.5962 106.577 22.4165C107.35 23.2251 107.796 24.4497 107.913 26.0903Z" fill="white"/>
<circle cx="125.828" cy="28.1779" r="4.05438" fill="white"/>
</svg>

